<svg width="1440" height="3095" viewBox="0 0 1440 3095" fill="none" xmlns="http://www.w3.org/2000/svg">
<path d="M656 681C335 1041.5 229 81.5 0 1V851H1445C1380 623.5 942.858 358.844 656 681Z" fill="#DFF8EB" stroke="#DFF8EB"/>
<path d="M916.5 1169C1189 881 1337.96 1200.28 1445 1329.5V851H0C0 1650.5 427.691 1685.61 916.5 1169Z" fill="#DFF8EB" stroke="#DFF8EB"/>
<path d="M722.5 199.5C466.261 263.041 283.667 92 241 1H1444.5V317.5C1380 93.5 1031 123 722.5 199.5Z" fill="#DFF8EB" stroke="#DFF8EB"/>
<path d="M652.5 2783.5C310.292 2749.99 357.35 3062.17 0 3094V2701H1440V2838.63C1314.83 2954.72 951.848 2812.81 652.5 2783.5Z" fill="#DFF8EB" stroke="#DFF8EB"/>
<path d="M641 2208C323 2014 95.5 2256.5 0 2701H1440V1540C871 1602 1020.21 2439.34 641 2208Z" fill="#DFF8EB" stroke="#DFF8EB"/>
</svg>
