<svg width="138" height="55" viewBox="0 0 138 55" fill="none" xmlns="http://www.w3.org/2000/svg">
<path d="M8.49791 19.6159C6.7841 19.1937 2.78522 19.7918 1 20.1437C1.42845 20.5659 4.74895 34.3925 6.35565 41.2531C16.6385 36.8201 28.1353 38.8783 32.5983 40.4615C24.8862 30.7511 15.9958 29.5549 12.5146 30.1706L8.49791 19.6159Z" fill="#02619C"/>
<path d="M33.4017 42.6609C21.6192 39.0723 10.4616 42.573 6.35565 44.7719C17.7096 41.6055 28.5816 43.4525 32.5983 44.7719C34.0979 46.2495 36.4365 46.0912 37.4184 45.8273C38.918 45.4051 40.1855 44.0682 40.6318 43.4525C40.6318 43.4525 41.5244 42.7489 41.7029 42.6609C48.9866 37.1725 60.2692 37.9113 65 38.9668C51.718 34.1116 41.9707 38.8788 38.7573 41.8693C37.0435 44.4025 34.4728 43.4525 33.4017 42.6609Z" fill="#00629D"/>
<path d="M56.9665 18.943C45.8268 25.2758 40.364 34.951 39.0251 38.9969C48.8795 30.7643 60.2692 33.8075 64.7322 36.3583L57.5021 13.6656L52.4142 13.1379L56.9665 18.943Z" fill="#005D97"/>
<path d="M43.3096 20.5262C45.6661 17.1487 39.6499 9.79558 36.3473 6.54122C36.3473 5.90794 40.0962 2.58321 41.9707 1L55.092 18.4153C43.0954 26.0146 37.954 36.1823 36.8828 40.3163C36.8828 40.3163 36.4365 38.9969 36.3473 38.4692L43.3096 20.5262Z" fill="#099BF2"/>
<path d="M13.318 28.97L5.28452 7.86056C24.9933 17.5709 32.7768 34.0714 34.205 41.1079C26.9213 30.5532 17.2455 28.6181 13.318 28.97Z" fill="#137DF6"/>
<path d="M35.0084 38.2053C32.8661 30.6059 25.7252 21.8455 22.4226 18.4153L29.1172 1.52774C43.0418 12.0824 42.7741 18.4153 42.7741 19.2069C42.7741 19.8401 37.5969 32.1364 35.0084 38.2053Z" fill="#025E99"/>
<path d="M8.49791 19.6159C6.7841 19.1937 2.78522 19.7918 1 20.1437C1.42845 20.5659 4.74895 34.3925 6.35565 41.2531C16.6385 36.8201 28.1353 38.8783 32.5983 40.4615C24.8862 30.7511 15.9958 29.5549 12.5146 30.1706L8.49791 19.6159Z" stroke="#035D93" stroke-width="0.5"/>
<path d="M33.4017 42.6609C21.6192 39.0723 10.4616 42.573 6.35565 44.7719C17.7096 41.6055 28.5816 43.4525 32.5983 44.7719C34.0979 46.2495 36.4365 46.0912 37.4184 45.8273C38.918 45.4051 40.1855 44.0682 40.6318 43.4525C40.6318 43.4525 41.5244 42.7489 41.7029 42.6609C48.9866 37.1725 60.2692 37.9113 65 38.9668C51.718 34.1116 41.9707 38.8788 38.7573 41.8693C37.0435 44.4025 34.4728 43.4525 33.4017 42.6609Z" stroke="#035D93" stroke-width="0.5"/>
<path d="M56.9665 18.943C45.8268 25.2758 40.364 34.951 39.0251 38.9969C48.8795 30.7643 60.2692 33.8075 64.7322 36.3583L57.5021 13.6656L52.4142 13.1379L56.9665 18.943Z" stroke="#035D93" stroke-width="0.5"/>
<path d="M43.3096 20.5262C45.6661 17.1487 39.6499 9.79558 36.3473 6.54122C36.3473 5.90794 40.0962 2.58321 41.9707 1L55.092 18.4153C43.0954 26.0146 37.954 36.1823 36.8828 40.3163C36.8828 40.3163 36.4365 38.9969 36.3473 38.4692L43.3096 20.5262Z" stroke="#035D93" stroke-width="0.5"/>
<path d="M13.318 28.97L5.28452 7.86056C24.9933 17.5709 32.7768 34.0714 34.205 41.1079C26.9213 30.5532 17.2455 28.6181 13.318 28.97Z" stroke="#035D93" stroke-width="0.5"/>
<path d="M35.0084 38.2053C32.8661 30.6059 25.7252 21.8455 22.4226 18.4153L29.1172 1.52774C43.0418 12.0824 42.7741 18.4153 42.7741 19.2069C42.7741 19.8401 37.5969 32.1364 35.0084 38.2053Z" stroke="#035D93" stroke-width="0.5"/>
<path d="M78.07 23.55C77.3367 23.55 76.7133 23.5133 76.2 23.44C75.6933 23.3667 75.28 23.2267 74.96 23.02C74.6467 22.82 74.41 22.53 74.25 22.15C74.09 21.77 73.9933 21.2767 73.96 20.67C73.9467 20.3633 73.9367 20.0033 73.93 19.59C73.93 19.1767 73.9333 18.74 73.94 18.28C73.9467 17.82 73.9567 17.36 73.97 16.9C73.99 16.44 74.01 16.01 74.03 15.61C74.05 15.2033 74.07 14.8567 74.09 14.57C74.15 13.6767 74.36 12.97 74.72 12.45C75.0867 11.9233 75.6167 11.55 76.31 11.33C77.0033 11.1033 77.8767 10.99 78.93 10.99C79.53 10.99 80.12 11.05 80.7 11.17C81.2867 11.2833 81.8167 11.4633 82.29 11.71C82.7633 11.9567 83.14 12.28 83.42 12.68C83.7067 13.08 83.85 13.5667 83.85 14.14C83.85 14.5867 83.76 14.9667 83.58 15.28C83.4067 15.5867 83.1933 15.8367 82.94 16.03C82.6933 16.2233 82.45 16.3667 82.21 16.46C81.97 16.5533 81.7667 16.6267 81.6 16.68C81.4333 16.7333 81.35 16.7833 81.35 16.83C81.35 16.87 81.47 16.91 81.71 16.95C81.95 16.99 82.2467 17.0633 82.6 17.17C83.08 17.31 83.4967 17.4967 83.85 17.73C84.21 17.9633 84.4867 18.2533 84.68 18.6C84.8733 18.9467 84.97 19.3567 84.97 19.83C84.97 20.2967 84.8433 20.7433 84.59 21.17C84.3433 21.59 84.05 21.9367 83.71 22.21C83.4433 22.4233 83.1 22.6133 82.68 22.78C82.2667 22.9467 81.8033 23.0867 81.29 23.2C80.7833 23.32 80.2533 23.4067 79.7 23.46C79.1533 23.52 78.61 23.55 78.07 23.55ZM78 21.79C78.6933 21.79 79.3267 21.7467 79.9 21.66C80.4733 21.5667 80.9667 21.4267 81.38 21.24C81.8 21.0533 82.1233 20.82 82.35 20.54C82.5833 20.26 82.7 19.9333 82.7 19.56C82.7 19.2267 82.57 18.9533 82.31 18.74C82.0567 18.5267 81.72 18.3567 81.3 18.23C80.88 18.1033 80.42 18.01 79.92 17.95C79.42 17.89 78.92 17.8533 78.42 17.84C77.9267 17.82 77.4833 17.81 77.09 17.81C76.97 17.81 76.86 17.8367 76.76 17.89C76.6667 17.9433 76.5833 18.0367 76.51 18.17C76.4433 18.3033 76.39 18.49 76.35 18.73C76.3167 18.97 76.3 19.2767 76.3 19.65C76.3 20.0633 76.3167 20.4067 76.35 20.68C76.3833 20.9533 76.4567 21.1733 76.57 21.34C76.6833 21.5 76.8533 21.6167 77.08 21.69C77.3067 21.7567 77.6133 21.79 78 21.79ZM76.7 16.24C77.22 16.24 77.6867 16.2333 78.1 16.22C78.5133 16.2 78.8933 16.1667 79.24 16.12C79.5867 16.0733 79.9133 16.0067 80.22 15.92C80.7067 15.7867 81.09 15.59 81.37 15.33C81.6567 15.0633 81.8 14.6733 81.8 14.16C81.8 13.8667 81.71 13.61 81.53 13.39C81.35 13.1633 81.11 12.9767 80.81 12.83C80.5167 12.6767 80.19 12.5633 79.83 12.49C79.47 12.4167 79.11 12.38 78.75 12.38C78.4167 12.38 78.1 12.4133 77.8 12.48C77.5 12.5467 77.24 12.65 77.02 12.79C76.8067 12.9233 76.6533 13.0867 76.56 13.28C76.5133 13.38 76.47 13.5233 76.43 13.71C76.3967 13.89 76.3633 14.0867 76.33 14.3C76.3033 14.5133 76.2833 14.7267 76.27 14.94C76.2633 15.1467 76.26 15.33 76.26 15.49C76.26 15.73 76.29 15.9167 76.35 16.05C76.4167 16.1767 76.5333 16.24 76.7 16.24ZM91.9272 23.53C91.1539 23.53 90.4072 23.4433 89.6872 23.27C88.9739 23.0967 88.3339 22.82 87.7672 22.44C87.2072 22.06 86.7639 21.5667 86.4372 20.96C86.1105 20.3467 85.9472 19.6 85.9472 18.72C85.9472 17.7533 86.1039 16.91 86.4172 16.19C86.7372 15.4633 87.1772 14.86 87.7372 14.38C88.2972 13.8933 88.9439 13.53 89.6772 13.29C90.4172 13.0433 91.2072 12.92 92.0472 12.92C92.8072 12.92 93.5505 13.0167 94.2772 13.21C95.0039 13.4033 95.6572 13.7067 96.2372 14.12C96.8172 14.5333 97.2772 15.07 97.6172 15.73C97.9639 16.3833 98.1372 17.1733 98.1372 18.1C98.1372 18.8 97.9939 19.4733 97.7072 20.12C97.4272 20.7667 97.0172 21.3467 96.4772 21.86C95.9439 22.3667 95.2939 22.77 94.5272 23.07C93.7672 23.3767 92.9005 23.53 91.9272 23.53ZM91.8372 21.32C92.5172 21.32 93.0939 21.2167 93.5672 21.01C94.0405 20.7967 94.4239 20.52 94.7172 20.18C95.0172 19.8333 95.2339 19.4567 95.3672 19.05C95.5072 18.6433 95.5772 18.24 95.5772 17.84C95.5772 17.28 95.4672 16.8067 95.2472 16.42C95.0339 16.0267 94.7472 15.71 94.3872 15.47C94.0339 15.23 93.6372 15.0567 93.1972 14.95C92.7572 14.8367 92.3072 14.78 91.8472 14.78C91.2472 14.78 90.6805 14.91 90.1472 15.17C89.6139 15.4233 89.1805 15.81 88.8472 16.33C88.5205 16.8433 88.3572 17.4933 88.3572 18.28C88.3572 18.92 88.4872 19.47 88.7472 19.93C89.0139 20.3833 89.4072 20.73 89.9272 20.97C90.4472 21.2033 91.0839 21.32 91.8372 21.32ZM105.326 23.53C104.552 23.53 103.806 23.4433 103.086 23.27C102.372 23.0967 101.732 22.82 101.166 22.44C100.606 22.06 100.162 21.5667 99.8356 20.96C99.509 20.3467 99.3456 19.6 99.3456 18.72C99.3456 17.7533 99.5023 16.91 99.8156 16.19C100.136 15.4633 100.576 14.86 101.136 14.38C101.696 13.8933 102.342 13.53 103.076 13.29C103.816 13.0433 104.606 12.92 105.446 12.92C106.206 12.92 106.949 13.0167 107.676 13.21C108.402 13.4033 109.056 13.7067 109.636 14.12C110.216 14.5333 110.676 15.07 111.016 15.73C111.362 16.3833 111.536 17.1733 111.536 18.1C111.536 18.8 111.392 19.4733 111.106 20.12C110.826 20.7667 110.416 21.3467 109.876 21.86C109.342 22.3667 108.692 22.77 107.926 23.07C107.166 23.3767 106.299 23.53 105.326 23.53ZM105.236 21.32C105.916 21.32 106.492 21.2167 106.966 21.01C107.439 20.7967 107.822 20.52 108.116 20.18C108.416 19.8333 108.632 19.4567 108.766 19.05C108.906 18.6433 108.976 18.24 108.976 17.84C108.976 17.28 108.866 16.8067 108.646 16.42C108.432 16.0267 108.146 15.71 107.786 15.47C107.432 15.23 107.036 15.0567 106.596 14.95C106.156 14.8367 105.706 14.78 105.246 14.78C104.646 14.78 104.079 14.91 103.546 15.17C103.012 15.4233 102.579 15.81 102.246 16.33C101.919 16.8433 101.756 17.4933 101.756 18.28C101.756 18.92 101.886 19.47 102.146 19.93C102.412 20.3833 102.806 20.73 103.326 20.97C103.846 21.2033 104.482 21.32 105.236 21.32ZM114.094 23.4C113.834 23.4 113.631 23.3333 113.484 23.2C113.337 23.0733 113.234 22.89 113.174 22.65C113.121 22.41 113.094 22.13 113.094 21.81C113.094 21.5167 113.117 21.1367 113.164 20.67C113.217 20.2033 113.281 19.6733 113.354 19.08C113.427 18.48 113.497 17.8433 113.564 17.17C113.631 16.51 113.701 15.9 113.774 15.34C113.854 14.7733 113.931 14.2567 114.004 13.79C114.077 13.3233 114.154 12.91 114.234 12.55C114.314 12.1833 114.387 11.8767 114.454 11.63C114.601 11.1767 114.771 10.8467 114.964 10.64C115.157 10.4333 115.384 10.33 115.644 10.33C115.977 10.33 116.201 10.4567 116.314 10.71C116.434 10.9633 116.494 11.34 116.494 11.84C116.494 12.06 116.484 12.3067 116.464 12.58C116.451 12.8533 116.427 13.1433 116.394 13.45C116.367 13.7567 116.337 14.0667 116.304 14.38C116.277 14.6933 116.247 15 116.214 15.3C116.187 15.6 116.164 15.8833 116.144 16.15C116.131 16.41 116.124 16.6367 116.124 16.83C116.124 17.0433 116.134 17.22 116.154 17.36C116.181 17.4933 116.227 17.56 116.294 17.56C116.361 17.56 116.434 17.5333 116.514 17.48C116.594 17.42 116.684 17.34 116.784 17.24C116.891 17.1467 117.041 17.0067 117.234 16.82C117.434 16.6333 117.651 16.4267 117.884 16.2C118.117 15.9733 118.347 15.7533 118.574 15.54C118.807 15.32 119.011 15.1333 119.184 14.98C119.364 14.82 119.491 14.7133 119.564 14.66C119.724 14.54 119.897 14.4467 120.084 14.38C120.271 14.3133 120.444 14.28 120.604 14.28C120.864 14.28 121.071 14.35 121.224 14.49C121.377 14.6233 121.454 14.7933 121.454 15C121.454 15.1733 121.391 15.3667 121.264 15.58C121.137 15.7867 120.951 15.99 120.704 16.19C120.317 16.5833 119.931 16.9333 119.544 17.24C119.157 17.54 118.794 17.86 118.454 18.2C118.287 18.3533 118.204 18.4767 118.204 18.57C118.204 18.6233 118.227 18.6733 118.274 18.72C118.321 18.76 118.391 18.8133 118.484 18.88C118.671 19.0133 118.921 19.1867 119.234 19.4C119.554 19.6133 119.897 19.8433 120.264 20.09C120.631 20.3367 120.981 20.5733 121.314 20.8C121.654 21.0267 121.931 21.2267 122.144 21.4C122.291 21.52 122.407 21.6367 122.494 21.75C122.587 21.8633 122.634 21.9867 122.634 22.12C122.634 22.2667 122.587 22.41 122.494 22.55C122.407 22.6833 122.287 22.79 122.134 22.87C121.987 22.95 121.817 22.99 121.624 22.99C121.417 22.99 121.214 22.9433 121.014 22.85C120.821 22.75 120.634 22.6333 120.454 22.5C120.174 22.3067 119.841 22.0667 119.454 21.78C119.067 21.4933 118.671 21.19 118.264 20.87C117.864 20.55 117.494 20.25 117.154 19.97C116.987 19.83 116.831 19.7167 116.684 19.63C116.537 19.5367 116.401 19.49 116.274 19.49C116.141 19.49 116.031 19.5333 115.944 19.62C115.864 19.7067 115.804 19.8333 115.764 20C115.631 20.6533 115.511 21.19 115.404 21.61C115.297 22.0233 115.204 22.35 115.124 22.59C115.004 22.8967 114.861 23.1067 114.694 23.22C114.534 23.34 114.334 23.4 114.094 23.4ZM83.79 41.22C83.5033 41.22 83.29 41.16 83.15 41.04C83.0167 40.92 82.93 40.72 82.89 40.44C82.8767 40.2 82.8667 39.95 82.86 39.69C82.86 39.4233 82.86 39.1567 82.86 38.89C82.86 38.6167 82.86 38.3533 82.86 38.1C82.86 37.8467 82.86 37.61 82.86 37.39C82.8667 37.17 82.8667 36.9833 82.86 36.83C82.86 36.4833 82.8267 36.24 82.76 36.1C82.7 35.9533 82.6067 35.85 82.48 35.79C82.3333 35.7233 82.0567 35.6667 81.65 35.62C81.25 35.5733 80.6067 35.55 79.72 35.55C79.22 35.55 78.8133 35.5533 78.5 35.56C78.1933 35.5667 77.9467 35.58 77.76 35.6C77.58 35.6133 77.4367 35.6333 77.33 35.66C77.23 35.68 77.1367 35.71 77.05 35.75C76.9567 35.79 76.8667 35.8567 76.78 35.95C76.6933 36.0367 76.64 36.1833 76.62 36.39C76.6 36.49 76.5833 36.61 76.57 36.75C76.5633 36.89 76.5533 37.05 76.54 37.23C76.5267 37.41 76.5167 37.6133 76.51 37.84C76.5033 38.06 76.4933 38.31 76.48 38.59C76.4733 38.8633 76.4667 39.17 76.46 39.51C76.4267 39.9567 76.3633 40.2967 76.27 40.53C76.1767 40.7633 76.05 40.92 75.89 41C75.73 41.0867 75.5267 41.13 75.28 41.13C74.9133 41.13 74.6367 40.9667 74.45 40.64C74.27 40.3067 74.1333 39.89 74.04 39.39C74.0067 39.13 73.9733 38.8133 73.94 38.44C73.9133 38.0667 73.8933 37.6767 73.88 37.27C73.8667 36.8567 73.8533 36.4533 73.84 36.06C73.8333 35.6667 73.83 35.32 73.83 35.02C73.83 34.56 73.8333 34.1267 73.84 33.72C73.8533 33.3133 73.8733 32.93 73.9 32.57C73.9267 32.2033 73.9533 31.8633 73.98 31.55C74.0133 31.2367 74.0533 30.95 74.1 30.69C74.18 30.23 74.2833 29.8467 74.41 29.54C74.5367 29.2333 74.6933 29.0033 74.88 28.85C75.0733 28.6967 75.3033 28.62 75.57 28.62C75.8767 28.62 76.1033 28.73 76.25 28.95C76.4033 29.1633 76.5067 29.5433 76.56 30.09C76.5733 30.2833 76.5867 30.48 76.6 30.68C76.6133 30.8733 76.6267 31.0633 76.64 31.25C76.6533 31.4367 76.6667 31.61 76.68 31.77C76.6933 31.9233 76.7067 32.06 76.72 32.18C76.7333 32.3 76.7433 32.3967 76.75 32.47C76.79 32.71 76.84 32.9033 76.9 33.05C76.9667 33.19 77.09 33.28 77.27 33.32C77.5033 33.3667 77.8467 33.3967 78.3 33.41C78.7533 33.4167 79.2367 33.42 79.75 33.42C80.17 33.42 80.5633 33.4267 80.93 33.44C81.2967 33.4467 81.6167 33.4467 81.89 33.44C82.1633 33.4333 82.3567 33.4133 82.47 33.38C82.59 33.3333 82.6867 33.25 82.76 33.13C82.8333 33.0033 82.8833 32.79 82.91 32.49C82.9233 32.35 82.9367 32.1833 82.95 31.99C82.9633 31.7967 82.9767 31.5767 82.99 31.33C83.01 31.0833 83.03 30.8267 83.05 30.56C83.07 30.2867 83.0967 30.01 83.13 29.73C83.19 29.23 83.3 28.88 83.46 28.68C83.62 28.4733 83.82 28.37 84.06 28.37C84.4 28.37 84.6567 28.4967 84.83 28.75C85.01 28.9967 85.1467 29.4133 85.24 30C85.2867 30.1733 85.3233 30.41 85.35 30.71C85.3833 31.01 85.41 31.3567 85.43 31.75C85.4567 32.1367 85.4733 32.5533 85.48 33C85.4933 33.44 85.5 33.8867 85.5 34.34C85.5 34.7133 85.4933 35.1033 85.48 35.51C85.4667 35.91 85.4467 36.3133 85.42 36.72C85.4 37.12 85.3733 37.51 85.34 37.89C85.3067 38.2633 85.27 38.61 85.23 38.93C85.1967 39.25 85.16 39.53 85.12 39.77C85.0133 40.2833 84.8467 40.6533 84.62 40.88C84.4 41.1067 84.1233 41.22 83.79 41.22ZM90.9903 41.97C90.4503 41.97 89.937 41.9167 89.4503 41.81C88.9703 41.7033 88.5436 41.5333 88.1703 41.3C87.797 41.0667 87.5036 40.7633 87.2903 40.39C87.077 40.0167 86.9703 39.56 86.9703 39.02C86.9703 38.4067 87.1203 37.9033 87.4203 37.51C87.7203 37.1167 88.127 36.81 88.6403 36.59C89.1603 36.3633 89.7436 36.2067 90.3903 36.12C91.037 36.0333 91.707 35.99 92.4003 35.99C92.6136 35.99 92.8303 35.9967 93.0503 36.01C93.2703 36.0233 93.477 36.0367 93.6703 36.05C93.8703 36.0633 94.0336 36.07 94.1603 36.07C94.3336 36.07 94.4503 36.0433 94.5103 35.99C94.5703 35.93 94.6003 35.83 94.6003 35.69C94.6003 35.43 94.567 35.2 94.5003 35C94.4403 34.8 94.3503 34.6233 94.2303 34.47C94.1103 34.3167 93.967 34.1867 93.8003 34.08C93.5336 33.9 93.2103 33.7733 92.8303 33.7C92.457 33.62 92.0536 33.58 91.6203 33.58C91.107 33.58 90.6503 33.6333 90.2503 33.74C89.857 33.8467 89.507 33.9567 89.2003 34.07C88.8936 34.1833 88.6136 34.24 88.3603 34.24C88.0136 34.24 87.747 34.1833 87.5603 34.07C87.3736 33.9567 87.2803 33.7733 87.2803 33.52C87.2803 33.26 87.3903 33.02 87.6103 32.8C87.8303 32.58 88.1336 32.3867 88.5203 32.22C88.9136 32.0533 89.367 31.9233 89.8803 31.83C90.4003 31.7367 90.9536 31.69 91.5403 31.69C92.7203 31.69 93.707 31.84 94.5003 32.14C95.3003 32.4333 95.9003 32.9133 96.3003 33.58C96.7003 34.24 96.9003 35.13 96.9003 36.25C96.9003 36.5833 96.8836 36.8733 96.8503 37.12C96.817 37.3667 96.7736 37.5833 96.7203 37.77C96.6736 37.95 96.6336 38.1067 96.6003 38.24C96.567 38.3733 96.5503 38.4967 96.5503 38.61C96.5503 38.77 96.6003 38.9233 96.7003 39.07C96.807 39.21 96.9303 39.35 97.0703 39.49C97.217 39.63 97.3436 39.78 97.4503 39.94C97.557 40.0933 97.6103 40.2667 97.6103 40.46C97.6103 40.7467 97.517 40.9533 97.3303 41.08C97.1436 41.2067 96.937 41.27 96.7103 41.27C96.5036 41.27 96.3303 41.2 96.1903 41.06C96.057 40.9267 95.9336 40.7933 95.8203 40.66C95.7136 40.5267 95.5803 40.46 95.4203 40.46C95.327 40.46 95.2236 40.4867 95.1103 40.54C95.0036 40.5933 94.8703 40.6767 94.7103 40.79C94.5103 40.9367 94.2536 41.1 93.9403 41.28C93.6336 41.4667 93.2403 41.6267 92.7603 41.76C92.2803 41.9 91.6903 41.97 90.9903 41.97ZM91.2603 40.44C91.6736 40.44 92.0736 40.3767 92.4603 40.25C92.847 40.1167 93.1936 39.9367 93.5003 39.71C93.807 39.4767 94.0503 39.2067 94.2303 38.9C94.4103 38.5867 94.5003 38.25 94.5003 37.89C94.5003 37.6633 94.4236 37.5 94.2703 37.4C94.1236 37.3 93.8803 37.2367 93.5403 37.21C93.2003 37.1833 92.7503 37.17 92.1903 37.17C91.637 37.17 91.1236 37.2267 90.6503 37.34C90.177 37.4467 89.797 37.63 89.5103 37.89C89.2236 38.1433 89.0803 38.49 89.0803 38.93C89.0803 39.27 89.167 39.55 89.3403 39.77C89.5136 39.99 89.7636 40.1567 90.0903 40.27C90.417 40.3833 90.807 40.44 91.2603 40.44ZM104.274 41.72C103.94 41.72 103.57 41.5667 103.164 41.26C102.757 40.9533 102.34 40.5467 101.914 40.04C101.72 39.82 101.497 39.5267 101.244 39.16C100.997 38.7867 100.737 38.38 100.464 37.94C100.197 37.5 99.9338 37.05 99.6738 36.59C99.4204 36.1233 99.1871 35.6867 98.9738 35.28C98.7604 34.8667 98.5871 34.5133 98.4538 34.22C98.3404 33.9733 98.2504 33.75 98.1838 33.55C98.1238 33.35 98.0938 33.17 98.0938 33.01C98.0938 32.7967 98.1471 32.6167 98.2538 32.47C98.3671 32.3167 98.5138 32.2 98.6938 32.12C98.8738 32.0333 99.0671 31.99 99.2738 31.99C99.5871 31.99 99.8571 32.0733 100.084 32.24C100.31 32.4 100.524 32.6467 100.724 32.98C100.797 33.1133 100.907 33.3333 101.054 33.64C101.207 33.94 101.38 34.29 101.574 34.69C101.774 35.0833 101.977 35.4967 102.184 35.93C102.397 36.3633 102.607 36.7867 102.814 37.2C103.02 37.6067 103.204 37.9667 103.364 38.28C103.537 38.6 103.697 38.8567 103.844 39.05C103.997 39.2433 104.12 39.34 104.214 39.34C104.32 39.34 104.447 39.2433 104.594 39.05C104.74 38.8567 104.894 38.6067 105.054 38.3C105.447 37.5333 105.844 36.68 106.244 35.74C106.65 34.7933 107.07 33.83 107.504 32.85C107.704 32.49 107.904 32.2367 108.104 32.09C108.304 31.9367 108.56 31.86 108.874 31.86C109.194 31.86 109.45 31.9433 109.644 32.11C109.837 32.27 109.934 32.51 109.934 32.83C109.934 33.0033 109.907 33.1933 109.854 33.4C109.807 33.6067 109.737 33.8233 109.644 34.05C109.537 34.35 109.394 34.71 109.214 35.13C109.034 35.5433 108.83 35.9867 108.604 36.46C108.384 36.9333 108.154 37.4 107.914 37.86C107.674 38.32 107.434 38.75 107.194 39.15C106.96 39.5433 106.744 39.87 106.544 40.13C106.157 40.5967 105.767 40.9767 105.374 41.27C104.987 41.57 104.62 41.72 104.274 41.72ZM116.941 41.69C115.821 41.69 114.851 41.52 114.031 41.18C113.211 40.84 112.578 40.3167 112.131 39.61C111.684 38.8967 111.461 37.99 111.461 36.89C111.461 35.9767 111.611 35.18 111.911 34.5C112.218 33.8133 112.638 33.24 113.171 32.78C113.704 32.32 114.321 31.9767 115.021 31.75C115.721 31.5167 116.468 31.4 117.261 31.4C117.801 31.4 118.311 31.4567 118.791 31.57C119.278 31.6833 119.708 31.86 120.081 32.1C120.461 32.3333 120.758 32.6333 120.971 33C121.184 33.3667 121.291 33.8033 121.291 34.31C121.291 34.85 121.178 35.29 120.951 35.63C120.724 35.9633 120.414 36.2267 120.021 36.42C119.628 36.6067 119.181 36.7467 118.681 36.84C118.188 36.9267 117.671 36.9933 117.131 37.04C116.858 37.0867 116.534 37.1267 116.161 37.16C115.788 37.1867 115.424 37.21 115.071 37.23C114.724 37.2433 114.454 37.25 114.261 37.25C114.061 37.25 113.924 37.2767 113.851 37.33C113.778 37.3833 113.741 37.48 113.741 37.62C113.741 37.7867 113.788 37.9833 113.881 38.21C113.974 38.43 114.108 38.6467 114.281 38.86C114.601 39.2533 114.971 39.5167 115.391 39.65C115.818 39.7767 116.341 39.84 116.961 39.84C117.501 39.84 117.994 39.7767 118.441 39.65C118.888 39.5167 119.288 39.3867 119.641 39.26C120.001 39.1267 120.324 39.06 120.611 39.06C120.871 39.06 121.074 39.11 121.221 39.21C121.374 39.3033 121.451 39.49 121.451 39.77C121.451 40.0233 121.334 40.2667 121.101 40.5C120.874 40.7333 120.558 40.9367 120.151 41.11C119.744 41.29 119.268 41.43 118.721 41.53C118.174 41.6367 117.581 41.69 116.941 41.69ZM116.151 36.13C116.691 36.13 117.194 36.08 117.661 35.98C118.128 35.8733 118.504 35.6967 118.791 35.45C119.084 35.1967 119.231 34.85 119.231 34.41C119.231 33.89 119.041 33.5 118.661 33.24C118.281 32.9733 117.748 32.84 117.061 32.84C116.654 32.84 116.258 32.9133 115.871 33.06C115.484 33.2 115.141 33.3967 114.841 33.65C114.541 33.9033 114.301 34.19 114.121 34.51C113.941 34.83 113.851 35.1733 113.851 35.54C113.851 35.7267 113.924 35.8633 114.071 35.95C114.224 36.03 114.468 36.08 114.801 36.1C115.141 36.12 115.591 36.13 116.151 36.13ZM123.926 41.22C123.613 41.22 123.366 41.1367 123.186 40.97C123.006 40.8033 122.876 40.5333 122.796 40.16C122.769 39.9867 122.753 39.79 122.746 39.57C122.739 39.35 122.739 39.1 122.746 38.82C122.753 38.54 122.769 38.2333 122.796 37.9C122.876 36.5733 123.146 35.45 123.606 34.53C124.066 33.6033 124.706 32.9 125.526 32.42C126.346 31.9333 127.323 31.69 128.456 31.69C129.596 31.69 130.573 31.92 131.386 32.38C132.199 32.84 132.823 33.5467 133.256 34.5C133.689 35.4533 133.906 36.67 133.906 38.15C133.906 38.4167 133.899 38.6633 133.886 38.89C133.879 39.1167 133.866 39.3233 133.846 39.51C133.826 39.6967 133.796 39.8667 133.756 40.02C133.656 40.4467 133.506 40.7533 133.306 40.94C133.113 41.1267 132.859 41.22 132.546 41.22C132.226 41.22 131.983 41.1667 131.816 41.06C131.649 40.9533 131.529 40.7933 131.456 40.58C131.383 40.3667 131.333 40.1033 131.306 39.79C131.286 39.29 131.266 38.85 131.246 38.47C131.233 38.0833 131.209 37.74 131.176 37.44C131.149 37.1333 131.116 36.85 131.076 36.59C131.036 36.3233 130.986 36.0567 130.926 35.79C130.773 35.11 130.516 34.5933 130.156 34.24C129.796 33.8867 129.259 33.71 128.546 33.71C127.859 33.71 127.306 33.9 126.886 34.28C126.473 34.66 126.153 35.1833 125.926 35.85C125.826 36.13 125.743 36.4233 125.676 36.73C125.609 37.0367 125.553 37.3533 125.506 37.68C125.466 38.0067 125.429 38.35 125.396 38.71C125.369 39.07 125.343 39.4467 125.316 39.84C125.283 40.2133 125.203 40.5 125.076 40.7C124.949 40.9 124.789 41.0367 124.596 41.11C124.403 41.1833 124.179 41.22 123.926 41.22Z" fill="#025E99"/>
</svg>
