<svg width="146" height="116" viewBox="0 0 146 116" fill="none" xmlns="http://www.w3.org/2000/svg">
<path d="M17.8703 48.1604C14.0142 47.0908 5.01674 48.606 1 49.4973C1.96402 50.5669 9.43515 85.5944 13.0502 102.974C36.1866 91.7443 62.0544 96.9583 72.0962 100.969C54.7439 76.3696 34.7406 73.3392 26.9079 74.8989L17.8703 48.1604Z" fill="#02619C"/>
<path d="M73.9038 106.541C47.3933 97.4499 22.2887 106.318 13.0502 111.889C38.5967 103.867 63.0586 108.546 72.0962 111.889C75.4703 115.632 80.7322 115.231 82.9414 114.563C86.3155 113.493 89.1674 110.106 90.1715 108.546C90.1715 108.546 92.1799 106.764 92.5816 106.541C108.97 92.637 134.356 94.5087 145 97.1825C115.115 84.8828 93.1841 96.9597 85.954 104.536C82.0979 110.953 76.3138 108.546 73.9038 106.541Z" fill="#00629D"/>
<path d="M126.925 46.4556C101.86 62.4987 89.569 87.0091 86.5565 97.2589C108.729 76.4028 134.356 84.1124 144.397 90.5742L128.13 33.0863L116.682 31.7494L126.925 46.4556Z" fill="#005D97"/>
<path d="M96.1967 50.4664C101.499 41.91 87.9623 23.2822 80.5314 15.0378C80.5314 13.4334 88.9665 5.01079 93.1841 1L122.707 45.1187C95.7146 64.3704 84.1464 90.1286 81.7364 100.601C81.7364 100.601 80.7322 97.2589 80.5314 95.922L96.1967 50.4664Z" fill="#099BF2"/>
<path d="M28.7155 71.8572L10.6402 18.3801C54.9849 42.9796 72.4979 84.7809 75.7113 102.607C59.323 75.868 37.5523 70.966 28.7155 71.8572Z" fill="#137DF6"/>
<path d="M77.5188 95.2535C72.6987 76.0017 56.6318 53.8087 49.2008 45.1187L64.2636 2.33693C95.5941 29.0755 94.9916 45.1187 94.9916 47.1241C94.9916 48.7284 83.3431 79.8788 77.5188 95.2535Z" fill="#025E99"/>
<path d="M17.8703 48.1604C14.0142 47.0908 5.01674 48.606 1 49.4973C1.96402 50.5669 9.43515 85.5944 13.0502 102.974C36.1866 91.7443 62.0544 96.9583 72.0962 100.969C54.7439 76.3696 34.7406 73.3392 26.9079 74.8989L17.8703 48.1604Z" stroke="#035D93" stroke-width="0.5"/>
<path d="M73.9038 106.541C47.3933 97.4499 22.2887 106.318 13.0502 111.889C38.5967 103.867 63.0586 108.546 72.0962 111.889C75.4703 115.632 80.7322 115.231 82.9414 114.563C86.3155 113.493 89.1674 110.106 90.1715 108.546C90.1715 108.546 92.1799 106.764 92.5816 106.541C108.97 92.637 134.356 94.5087 145 97.1825C115.115 84.8828 93.1841 96.9597 85.954 104.536C82.0979 110.953 76.3138 108.546 73.9038 106.541Z" stroke="#035D93" stroke-width="0.5"/>
<path d="M126.925 46.4556C101.86 62.4987 89.569 87.0091 86.5565 97.2589C108.729 76.4028 134.356 84.1124 144.397 90.5742L128.13 33.0863L116.682 31.7494L126.925 46.4556Z" stroke="#035D93" stroke-width="0.5"/>
<path d="M96.1967 50.4664C101.499 41.91 87.9623 23.2822 80.5314 15.0378C80.5314 13.4334 88.9665 5.01079 93.1841 1L122.707 45.1187C95.7146 64.3704 84.1464 90.1286 81.7364 100.601C81.7364 100.601 80.7322 97.2589 80.5314 95.922L96.1967 50.4664Z" stroke="#035D93" stroke-width="0.5"/>
<path d="M28.7155 71.8572L10.6402 18.3801C54.9849 42.9796 72.4979 84.7809 75.7113 102.607C59.323 75.868 37.5523 70.966 28.7155 71.8572Z" stroke="#035D93" stroke-width="0.5"/>
<path d="M77.5188 95.2535C72.6987 76.0017 56.6318 53.8087 49.2008 45.1187L64.2636 2.33693C95.5941 29.0755 94.9916 45.1187 94.9916 47.1241C94.9916 48.7284 83.3431 79.8788 77.5188 95.2535Z" stroke="#035D93" stroke-width="0.5"/>
</svg>
